<?xml version="1.0" encoding="UTF-8" standalone="no"?>
<!DOCTYPE svg PUBLIC "-//W3C//DTD SVG 20010904//EN"
              "http://www.w3.org/TR/2001/REC-SVG-20010904/DTD/svg10.dtd">

<svg xmlns="http://www.w3.org/2000/svg"
     width="1596" height="305"
     viewBox="0 0 1596 305">
  <path id="chatborder"
        fill="#ee137a" stroke="none" stroke-width="1"
        d="M 210.32,211.00
           C 174.39,210.66 177.88,182.55 180.54,153.27
             180.54,153.27 189.86,55.47 189.86,55.47
             192.85,27.85 214.81,2.74 256.73,1.24
             256.73,1.24 1524.58,51.84 1524.58,51.84
             1551.68,53.29 1565.71,73.37 1572.97,100.23 Z" />
  <path id="chattail"
        fill="#e0d1b1" stroke="none" stroke-width="1"
        d="M 201.59,181.76
           C 201.59,181.76 247.00,215.50 247.00,215.50
             247.00,215.50 198.20,236.45 198.20,236.45
             198.20,236.45 0.04,138.90 0.04,138.90
             0.04,138.90 201.59,181.76 201.59,181.76 Z" />
  <path id="chatmain_notail"
        fill="#e0d1b1" stroke="none" stroke-width="1"
        d="M 204.98,119.83
           C 208.37,108.70 223.37,69.74 278.05,69.50
             278.05,69.50 1531.96,71.31 1531.96,71.31
             1556.18,71.43 1582.40,82.81 1584.82,114.02
             1584.82,114.02 1594.99,270.08 1594.99,270.08
             1595.23,280.00 1579.74,299.84 1541.03,300.56
             1541.03,300.56 240.79,302.74 240.79,302.74
             217.80,302.50 198.20,282.78 197.72,269.96
             197.72,269.96 204.98,119.83 204.98,119.83 Z" />
</svg>
